<svg width="1000" height="1000" viewBox="0 0 1000 1000" fill="none" xmlns="http://www.w3.org/2000/svg">
<path d="M0 295C0 132.076 132.076 0 295 0H900C955.228 0 1000 44.7715 1000 100V705C1000 867.924 867.924 1000 705 1000H100C44.7716 1000 0 955.228 0 900V295Z" fill="white"/>
<path fill-rule="evenodd" clip-rule="evenodd" d="M512.353 229.16C508.667 226.795 504.379 225.538 500 225.538C495.621 225.538 491.333 226.795 487.648 229.16L167.397 435.035L192.102 473.465L225.5 452.054V751.625C225.5 757.692 227.91 763.51 232.2 767.8C236.49 772.09 242.308 774.5 248.375 774.5H751.625C757.692 774.5 763.51 772.09 767.8 767.8C772.09 763.51 774.5 757.692 774.5 751.625V452.054L807.898 473.511L832.603 434.989L512.353 229.16ZM431.375 545.75C425.308 545.75 419.49 548.16 415.2 552.45C410.91 556.74 408.5 562.558 408.5 568.625V728.75H454.25V591.5H545.75V728.75H591.5V568.625C591.5 562.558 589.09 556.74 584.8 552.45C580.51 548.16 574.692 545.75 568.625 545.75H431.375Z" fill="#626262"/>
</svg>
